<?xml version="1.0" encoding="utf-8"?>
<!-- Generator: Adobe Illustrator 19.2.1, SVG Export Plug-In . SVG Version: 6.00 Build 0)  -->
<svg version="1.1" id="Слой_1" xmlns="http://www.w3.org/2000/svg" xmlns:xlink="http://www.w3.org/1999/xlink" x="0px" y="0px"
	 viewBox="0 0 473.5 269.1" style="enable-background:new 0 0 473.5 269.1;" xml:space="preserve">
<style type="text/css">
	.st0{fill:#FFFFFF;}
</style>
<g>
	<path class="st0" d="M40.3,126c-14.7-3.8-18.3-5.6-18.3-11.2v-0.2c0-4.1,3.8-7.4,10.9-7.4c7.2,0,14.6,3.2,22.1,8.4l9.7-14.1
		c-8.6-6.9-19.2-10.8-31.6-10.8c-17.4,0-29.8,10.2-29.8,25.6v0.2c0,16.9,11.1,21.6,28.2,26c14.2,3.6,17.1,6.1,17.1,10.8v0.2
		c0,5-4.6,8-12.3,8c-9.7,0-17.7-4-25.4-10.3L0,164.5c10.2,9.1,23.2,13.6,36.1,13.6c18.3,0,31.2-9.5,31.2-26.4v-0.2
		C67.3,136.7,57.6,130.5,40.3,126z"/>
	<path class="st0" d="M128,91.9H93.2v85.1H112v-25.5h14.2c19.1,0,34.4-10.2,34.4-29.9v-0.2C160.6,103.9,148.3,91.9,128,91.9z
		 M141.6,121.9c0,7.3-5.5,12.9-14.8,12.9H112v-26h14.5c9.4,0,15.2,4.5,15.2,12.9V121.9z"/>
	<rect x="185.2" y="91.9" class="st0" width="18.7" height="85.1"/>
	<polygon class="st0" points="223.6,108.3 223.6,109.1 249.5,109.1 249.5,176.9 268.2,176.9 268.2,109.1 294.1,109.1 294.1,91.9 
		223.6,91.9 	"/>
	<path class="st0" d="M348.2,161.1c-14.6,0-24.7-12.2-24.7-26.7v-0.2c0-14.6,10.3-26.5,24.7-26.5c8.5,0,15.2,3.6,21.7,9.6l11.9-13.7
		c-7.9-7.8-17.5-13.1-33.5-13.1c-26.1,0-44.4,19.8-44.4,44v0.2c0,24.4,18.6,43.7,43.6,43.7c16.4,0,26.1-5.8,34.9-15.2l-11.9-12
		C363.9,157.2,358,161.1,348.2,161.1z"/>
	<polygon class="st0" points="454.8,91.9 454.8,125.5 420.2,125.5 420.2,91.9 401.5,91.9 401.5,176.9 420.2,176.9 420.2,142.8 
		454.8,142.8 454.8,176.9 473.5,176.9 473.5,91.9 	"/>
	<polygon class="st0" points="255.6,0 217.1,0 236.4,34.2 	"/>
	<polygon class="st0" points="217.1,269.1 255.6,269.1 236.4,234.9 	"/>
</g>
</svg>
